<?xml version="1.0" encoding="UTF-8"?><svg id="Layer_1" xmlns="http://www.w3.org/2000/svg" viewBox="0 0 643.06 231.54"><defs><style>.cls-1{fill:#99bde4;}.cls-1,.cls-2{stroke-width:0px;}.cls-2{fill:#005bbb;}</style></defs><path class="cls-2" d="m109.51,107.7c0-1.19.65-1.94,1.78-1.94h27.7c.75,0,1.51.59,1.51,1.78v5.78c0,1.19-.75,1.73-1.51,1.73h-19.76v24.84h15.17c.81,0,1.67.49,1.67,1.73v5.78c0,1.24-.81,1.73-1.67,1.73h-15.17v31.64c0,1.24-.49,2-1.73,2h-6.21c-1.24,0-1.78-.75-1.78-2v-73.06Z"/><path class="cls-2" d="m145.16,122.77c0-10.91,8.58-18.2,19.11-18.2s19.11,7.23,19.11,18.2v43.03c0,10.91-8.69,18.14-19.17,18.14s-19.06-7.45-19.06-18.14v-43.03Zm9.72,42.6c0,5.02,3.94,9.29,9.34,9.29s9.45-4.27,9.45-9.29v-42.17c0-5.08-4.1-9.34-9.39-9.34s-9.4,4.27-9.4,9.34v42.17Z"/><path class="cls-2" d="m203.16,165.32c0,5.02,3.99,9.34,9.39,9.34s9.4-4.37,9.4-9.34v-57.5c0-1.08.48-2.05,1.62-2.05h6.43c1.19,0,1.67,1.03,1.67,2.05v57.99c0,10.04-8.69,18.14-19.17,18.14s-19.06-8.1-19.06-18.14v-58.1c0-1.13.7-1.94,1.51-1.94h6.7c1.19,0,1.51.86,1.51,1.94v57.61Z"/><path class="cls-2" d="m243.13,107.7c0-1.19.65-1.94,1.78-1.94h6.05c.65.11,1.46.48,1.84,1.57l19.87,51.19,1.24,4.97-.22-4.64-.38-51.13c-.05-1.08.54-1.94,1.78-1.94h5.83c.97,0,1.73.59,1.73,1.94v73.11c0,1.24-.65,1.94-1.89,1.94h-5.89c-.7,0-1.73-.32-2.11-1.51l-19.82-50.54-1.03-3.67.22,4.05.32,49.68c0,1.24-.54,2-1.78,2h-5.78c-1.24,0-1.78-.75-1.78-2v-73.06Z"/><path class="cls-2" d="m294.97,107.7c0-1.19.65-1.94,1.78-1.94h17.6c11.12.11,18.79,7.13,18.79,18.85v39.15c0,11.72-7.77,18.9-18.74,19h-17.66c-1.24,0-1.78-.75-1.78-2v-73.06Zm9.72,7.34v58.42h9.56c5.67-.05,9.13-4.27,9.13-9.93v-38.61c0-5.99-3.46-9.77-8.96-9.88h-9.72Z"/><path class="cls-2" d="m381.38,180.76c.27,1.19-.27,2-1.24,2h-6.8c-.7,0-1.67-.38-1.89-1.56l-2.75-14.15h-17.71l-2.7,14.15c-.22,1.19-1.19,1.56-1.94,1.56h-6.75c-.97,0-1.51-.81-1.24-2l16.58-73.38c.27-1.19,1.03-1.62,1.89-1.62h6.1c.86,0,1.57.43,1.89,1.62l16.58,73.38Zm-21.54-62.85l-.43,5.67-6.7,34.67h14.31l-6.7-34.67-.49-5.67Z"/><path class="cls-2" d="m379.46,107.6c0-1.24.76-1.84,1.51-1.84h33.26c.76,0,1.51.59,1.51,1.78v5.78c0,1.24-.75,1.73-1.51,1.73h-11.77v65.87c0,1.24-.7,1.84-1.51,1.84h-6.7c-.81,0-1.57-.59-1.57-1.84v-65.87h-11.72c-.75,0-1.51-.49-1.51-1.73v-5.72Z"/><path class="cls-2" d="m423.33,107.7c0-1.19.65-1.94,1.78-1.94h6.21c1.19,0,1.73.75,1.73,1.94v73.06c0,1.24-.49,2-1.73,2h-6.21c-1.24,0-1.78-.75-1.78-2v-73.06Z"/><path class="cls-2" d="m444.89,122.77c0-10.91,8.58-18.2,19.11-18.2s19.11,7.23,19.11,18.2v43.03c0,10.91-8.69,18.14-19.17,18.14s-19.06-7.45-19.06-18.14v-43.03Zm9.72,42.6c0,5.02,3.94,9.29,9.34,9.29s9.45-4.27,9.45-9.29v-42.17c0-5.08-4.1-9.34-9.39-9.34s-9.4,4.27-9.4,9.34v42.17Z"/><path class="cls-2" d="m494.03,107.7c0-1.19.65-1.94,1.78-1.94h6.05c.65.11,1.46.48,1.84,1.57l19.87,51.19,1.24,4.97-.22-4.64-.38-51.13c-.05-1.08.54-1.94,1.78-1.94h5.83c.97,0,1.73.59,1.73,1.94v73.11c0,1.24-.65,1.94-1.89,1.94h-5.89c-.7,0-1.73-.32-2.11-1.51l-19.82-50.54-1.03-3.67.22,4.05.32,49.68c0,1.24-.54,2-1.78,2h-5.78c-1.24,0-1.78-.75-1.78-2v-73.06Z"/><path class="cls-2" d="m20.48,0c12.84,0,19.78,9.49,19.78,19.67v4.92c0,1.79-.4,2.43-1.79,2.43h-6.71c-1.33,0-1.79-.63-1.79-2.26v-4.8c0-5.27-3.93-10.01-9.6-10.01s-9.95,4.51-9.95,9.95v45.12c0,5.38,4.28,10.07,10.07,10.07s9.78-4.69,9.78-10.07v-5.96c0-1.79.64-2.25,1.74-2.25h6.77c1.22,0,1.79.46,1.79,2.2v6.54c0,11.69-8.91,19.5-20.07,19.5S0,77.23,0,65.54V19.5C0,8.5,8.56,0,20.48,0Z"/><path class="cls-2" d="m90.95,81.63c.29,1.27-.29,2.14-1.33,2.14h-7.29c-.75,0-1.79-.4-2.02-1.68l-2.95-15.16h-18.97l-2.89,15.16c-.23,1.27-1.27,1.68-2.08,1.68h-7.23c-1.04,0-1.62-.87-1.33-2.14L62.6,3.01c.29-1.27,1.1-1.74,2.03-1.74h6.54c.92,0,1.68.46,2.02,1.74l17.76,78.62ZM67.87,14.29l-.46,6.07-7.17,37.14h15.33l-7.17-37.14-.52-6.07Z"/><path class="cls-2" d="m97.72,3.35c0-1.27.7-2.08,1.91-2.08h18.45c11.98,0,20.31,9.03,20.31,20.54v13.36c0,11.63-8.45,20.54-20.25,20.54h-10.01v25.92c0,1.33-.52,2.14-1.85,2.14h-6.65c-1.33,0-1.91-.81-1.91-2.14V3.35Zm20.42,42.4c6.02,0,9.78-4.51,9.78-10.53v-13.19c0-6.19-3.76-10.82-9.84-10.82h-9.95v34.54h10.01Z"/><path class="cls-2" d="m148.12,3.35c0-1.27.7-2.08,1.91-2.08h6.65c1.27,0,1.85.81,1.85,2.08v78.27c0,1.33-.52,2.14-1.85,2.14h-6.65c-1.33,0-1.91-.81-1.91-2.14V3.35Z"/><path class="cls-2" d="m165.71,3.24c0-1.33.81-1.97,1.62-1.97h35.64c.81,0,1.62.64,1.62,1.91v6.19c0,1.33-.81,1.85-1.62,1.85h-12.61v70.58c0,1.33-.75,1.97-1.62,1.97h-7.17c-.87,0-1.68-.63-1.68-1.97V11.22h-12.56c-.81,0-1.62-.52-1.62-1.85V3.24Z"/><path class="cls-2" d="m247.23,81.63c.29,1.27-.29,2.14-1.33,2.14h-7.29c-.75,0-1.79-.4-2.03-1.68l-2.95-15.16h-18.97l-2.89,15.16c-.23,1.27-1.27,1.68-2.08,1.68h-7.23c-1.04,0-1.62-.87-1.33-2.14L218.88,3.01c.29-1.27,1.1-1.74,2.03-1.74h6.54c.93,0,1.68.46,2.03,1.74l17.76,78.62Zm-23.08-67.34l-.46,6.07-7.17,37.14h15.33l-7.17-37.14-.52-6.07Z"/><path class="cls-2" d="m254.01,3.35c0-1.27.64-2.08,1.91-2.08h6.65c1.27,0,1.85.81,1.85,2.08v70.46h20.25c.87,0,1.68.41,1.68,1.74v6.25c0,1.27-.81,1.97-1.68,1.97h-28.75c-1.33,0-1.91-.81-1.91-2.14V3.35Z"/><path class="cls-2" d="m380.02,3.35c0-1.27.7-2.08,1.91-2.08h6.65c1.27,0,1.85.81,1.85,2.08v78.27c0,1.33-.52,2.14-1.85,2.14h-6.65c-1.33,0-1.91-.81-1.91-2.14V3.35Z"/><path class="cls-2" d="m413.17,24.8l.23,3.07.12,53.76c0,1.33-.52,2.14-1.62,2.14h-6.77c-1.1,0-1.5-.81-1.5-2.14V3.12c.06-1.16.69-1.85,1.62-1.85h8.45c1.04,0,1.45.64,1.74,1.74l14.29,61.83.52,3.53.58-3.53,14.35-61.83c.29-1.1.7-1.74,1.74-1.74h8.45c.92,0,1.56.7,1.62,1.85v78.5c0,1.33-.41,2.14-1.5,2.14h-6.77c-1.1,0-1.62-.81-1.62-2.14l.12-53.76.17-3.07-.12.75-13.13,56.41c-.35,1.27-.81,1.79-1.79,1.79h-4.05c-.98,0-1.45-.52-1.79-1.79l-13.13-56.41-.17-.75Z"/><path class="cls-2" d="m470.17,3.35c0-1.27.69-2.08,1.91-2.08h18.46c11.98,0,20.31,9.03,20.31,20.54v13.36c0,11.63-8.45,20.54-20.25,20.54h-10.01v25.92c0,1.33-.52,2.14-1.85,2.14h-6.65c-1.33,0-1.91-.81-1.91-2.14V3.35Zm20.42,42.4c6.02,0,9.78-4.51,9.78-10.53v-13.19c0-6.19-3.76-10.82-9.83-10.82h-9.95v34.54h10.01Z"/><path class="cls-2" d="m554.35,81.63c.29,1.27-.29,2.14-1.33,2.14h-7.29c-.75,0-1.79-.4-2.03-1.68l-2.95-15.16h-18.98l-2.89,15.16c-.23,1.27-1.27,1.68-2.08,1.68h-7.23c-1.04,0-1.62-.87-1.33-2.14l17.76-78.62c.29-1.27,1.1-1.74,2.02-1.74h6.54c.93,0,1.68.46,2.03,1.74l17.76,78.62Zm-23.08-67.34l-.46,6.07-7.17,37.14h15.33l-7.17-37.14-.52-6.07Z"/><path class="cls-2" d="m579.41,0c12.84,0,19.78,9.49,19.78,19.67v4.92c0,1.79-.4,2.43-1.79,2.43h-6.71c-1.33,0-1.79-.63-1.79-2.26v-4.8c0-5.27-3.93-10.01-9.6-10.01s-9.95,4.51-9.95,9.95v45.12c0,5.38,4.28,10.07,10.07,10.07s9.78-4.69,9.78-10.07v-5.96c0-1.79.63-2.25,1.74-2.25h6.77c1.21,0,1.79.46,1.79,2.2v6.54c0,11.69-8.91,19.5-20.07,19.5s-20.48-7.81-20.48-19.5V19.5c0-10.99,8.56-19.5,20.48-19.5Z"/><path class="cls-2" d="m604.18,3.24c0-1.33.81-1.97,1.62-1.97h35.64c.81,0,1.62.64,1.62,1.91v6.19c0,1.33-.81,1.85-1.62,1.85h-12.61v70.58c0,1.33-.75,1.97-1.62,1.97h-7.17c-.87,0-1.68-.63-1.68-1.97V11.22h-12.55c-.81,0-1.62-.52-1.62-1.85V3.24Z"/><path class="cls-1" d="m367.69,36.5h-35.74V1.79c0-1.01-.54-1.79-1.37-1.79h-8.8c-.99,0-1.71.89-1.71.89l-35.13,35.13s-.5.46-.5,1.38v9.58c0,1.07.66,1.55,1.85,1.55h33.63v34.66c0,1.19.48,1.85,1.55,1.85h9.11c.84,0,1.37-.78,1.37-1.79v-34.72h35.68c1.19,0,1.85-.48,1.85-1.55v-9.11c0-.84-.78-1.37-1.79-1.37Zm-66.21,0l18.45-18.45v18.45h-18.45Z"/><path class="cls-2" d="m159.8,215.56h10.95v3.52h-7.3v3.27h5.91v3.52h-5.91v5.54h-3.65v-15.85Z"/><path class="cls-2" d="m179.67,231.54c-4.28,0-7.8-3.52-7.8-8.05s3.52-8.05,7.8-8.05,7.8,3.52,7.8,8.05-3.52,8.05-7.8,8.05Zm0-12.58c-2.26,0-4.15,1.89-4.15,4.53s1.89,4.53,4.15,4.53,4.15-1.89,4.15-4.53-1.89-4.53-4.15-4.53Z"/><path class="cls-2" d="m193.42,215.56v9.44c0,1.89,1.13,3.02,2.89,3.02s2.89-1.13,2.89-3.02v-9.44h3.65v9.44c0,3.9-2.64,6.54-6.54,6.54s-6.54-2.64-6.54-6.54v-9.44h3.65Z"/><path class="cls-2" d="m219.43,215.56v15.85h-3.27l-6.42-9.31v9.31h-3.65v-15.85h3.27l6.42,9.31v-9.31h3.65Z"/><path class="cls-2" d="m222.86,215.56h5.41c4.4,0,7.93,3.52,7.93,7.93s-3.52,7.93-7.93,7.93h-5.41v-15.85Zm5.41,12.33c2.39,0,4.28-1.89,4.28-4.4s-1.89-4.4-4.28-4.4h-1.76v8.81h1.76Z"/><path class="cls-2" d="m238.73,215.56h11.32v3.52h-7.67v2.52h7.04v3.52h-7.04v2.77h7.93v3.52h-11.57v-15.85Z"/><path class="cls-2" d="m253.28,215.56h5.41c4.4,0,7.93,3.52,7.93,7.93s-3.52,7.93-7.93,7.93h-5.41v-15.85Zm5.41,12.33c2.39,0,4.28-1.89,4.28-4.4s-1.89-4.4-4.28-4.4h-1.76v8.81h1.76Z"/><path class="cls-2" d="m287.5,226.76c0,2.52-2.14,4.65-5.16,4.65h-7.17v-15.85h6.79c2.89,0,4.91,2.01,4.91,4.4,0,2.14-1.89,3.02-1.89,3.02,0,0,2.52,1.01,2.52,3.77Zm-8.68-4.91h2.77c1.01,0,1.76-.75,1.76-1.63s-.76-1.64-1.76-1.64h-2.77v3.27Zm3.14,6.54c1.13,0,2.01-.88,2.01-1.89s-.88-1.89-2.01-1.89h-3.14v3.77h3.14Z"/><path class="cls-2" d="m292.99,225.5l-5.28-9.94h3.9l3.22,6.29,3.2-6.29h3.9l-5.28,9.94v5.91h-3.65v-5.91Z"/><path class="cls-2" d="m315.89,215.56c3.27,0,5.66,2.39,5.66,5.41s-2.39,5.41-5.66,5.41h-2.52v5.03h-3.65v-15.85h6.17Zm0,7.3c1.13,0,2.01-.88,2.01-1.89s-.88-1.89-2.01-1.89h-2.52v3.77h2.52Z"/><path class="cls-2" d="m323.78,215.56h3.65v12.33h7.17v3.52h-10.82v-15.85Z"/><path class="cls-2" d="m340.38,228.4l-1.01,3.02h-3.77l5.66-15.85h3.78l5.66,15.85h-3.77l-1.01-3.02h-5.54Zm4.53-3.14l-1.76-5.28-1.76,5.28h3.52Z"/><path class="cls-2" d="m365.65,215.56v15.85h-3.27l-6.42-9.31v9.31h-3.65v-15.85h3.27l6.42,9.31v-9.31h3.65Z"/><path class="cls-2" d="m374.96,215.56h5.41c4.4,0,7.93,3.52,7.93,7.93s-3.52,7.93-7.93,7.93h-5.41v-15.85Zm5.41,12.33c2.39,0,4.28-1.89,4.28-4.4s-1.89-4.4-4.28-4.4h-1.76v8.81h1.76Z"/><path class="cls-2" d="m390.83,215.56h11.32v3.52h-7.67v2.52h7.04v3.52h-7.04v2.77h7.93v3.52h-11.57v-15.85Z"/><path class="cls-2" d="m418.72,215.56v15.85h-3.27l-6.42-9.31v9.31h-3.65v-15.85h3.27l6.42,9.31v-9.31h3.65Z"/><path class="cls-2" d="m435.73,215.56h3.27v15.85h-3.65v-7.93l-3.65,7.93h-2.26l-3.65-7.93v7.93h-3.65v-15.85h3.27l5.16,11.2,5.16-11.2Z"/><path class="cls-2" d="m445.43,228.4l-1.01,3.02h-3.77l5.66-15.85h3.78l5.66,15.85h-3.77l-1.01-3.02h-5.54Zm4.53-3.14l-1.76-5.28-1.76,5.28h3.52Z"/><path class="cls-2" d="m463.77,215.56c3.27,0,5.54,2.26,5.54,5.03,0,3.52-2.99,4.78-3.02,4.78l3.52,6.04h-4.03l-2.89-5.28h-1.89v5.28h-3.65v-15.85h6.42Zm0,7.04c1.26,0,2.01-.75,2.01-1.76s-.75-1.76-2.01-1.76h-2.77v3.52h2.77Z"/><path class="cls-2" d="m480.85,231.42l-5.16-7.04v7.04h-3.65v-15.85h3.65v6.79l4.78-6.79h4.15l-5.59,7.8,5.96,8.05h-4.15Z"/></svg>